<svg width="100" height="100" viewBox="0 0 100 100" fill="none" xmlns="http://www.w3.org/2000/svg">
<g clip-path="url(#clip0_94_32)">
<g clip-path="url(#clip1_94_32)">
<path d="M50 14.0625C27.5633 14.0625 9.375 28.4035 9.375 46.0938C9.375 57.5309 16.9789 67.5664 28.4172 73.2332C27.7949 75.3793 24.4184 87.0395 24.284 87.9555C24.284 87.9555 24.2031 88.6438 24.6488 88.9063C25.0945 89.1688 25.6187 88.9648 25.6187 88.9648C26.8969 88.7863 40.4402 79.273 42.7844 77.6211C45.1262 77.9527 47.5375 78.125 50 78.125C72.4367 78.125 90.625 63.7844 90.625 46.0938C90.625 28.4035 72.4367 14.0625 50 14.0625Z" fill="black"/>
<path d="M27.5391 57.2754C26.2465 57.2754 25.1953 56.2715 25.1953 55.0371V41.1133H21.5383C20.2699 41.1133 19.2383 40.0836 19.2383 38.8184C19.2383 37.5531 20.2703 36.5234 21.5383 36.5234H33.5398C34.8082 36.5234 35.8398 37.5531 35.8398 38.8184C35.8398 40.0836 34.8078 41.1133 33.5398 41.1133H29.8828V55.0371C29.8828 56.2715 28.8316 57.2754 27.5391 57.2754ZM48.0906 57.2449C47.1133 57.2449 46.3656 56.848 46.1402 56.2098L44.9797 53.1715L37.8328 53.1711L36.6715 56.2113C36.4469 56.8484 35.6996 57.2449 34.7223 57.2449C34.2082 57.2454 33.7 57.1351 33.2324 56.9215C32.5863 56.6234 31.9652 55.8039 32.677 53.5934L38.2832 38.8371C38.6781 37.7148 39.8777 36.5586 41.4043 36.5238C42.9352 36.5582 44.1348 37.7148 44.5305 38.8395L50.1344 53.5891C50.8477 55.8047 50.2266 56.6246 49.5805 56.9219C49.1128 57.1351 48.6047 57.2453 48.0906 57.2449ZM43.7473 49.0199L41.4062 42.3695L39.0652 49.0199H43.7473ZM53.9062 56.9336C52.6676 56.9336 51.6602 55.9695 51.6602 54.7852V38.8672C51.6602 37.5746 52.7336 36.5234 54.0527 36.5234C55.3719 36.5234 56.4453 37.5746 56.4453 38.8672V52.6367H61.4258C62.6645 52.6367 63.6719 53.6008 63.6719 54.7852C63.6719 55.9695 62.6645 56.9336 61.4258 56.9336H53.9062ZM66.9273 57.2449C65.6348 57.2449 64.5836 56.1937 64.5836 54.9012V38.8672C64.5836 37.5746 65.6348 36.5234 66.9273 36.5234C68.2199 36.5234 69.2711 37.5746 69.2711 38.8672V43.9047L75.8102 37.3656C76.1465 37.0293 76.6086 36.8441 77.1102 36.8441C77.6953 36.8441 78.2828 37.0965 78.723 37.5363C79.1336 37.9465 79.3785 38.4742 79.4121 39.0223C79.4461 39.575 79.2621 40.0816 78.8949 40.4492L73.5539 45.7895L79.323 53.4324C79.5093 53.6776 79.645 53.9574 79.7223 54.2554C79.7995 54.5535 79.8168 54.864 79.773 55.1687C79.7313 55.4737 79.6294 55.7674 79.4733 56.0327C79.3172 56.2981 79.11 56.5298 78.8637 56.7145C78.4584 57.0225 77.963 57.1887 77.4539 57.1875C77.0908 57.1892 76.7323 57.1058 76.4071 56.944C76.082 56.7822 75.7993 56.5466 75.5816 56.2559L70.0852 48.973L69.2719 49.7863V54.9C69.2712 55.5216 69.0239 56.1176 68.5844 56.5572C68.1449 56.9968 67.549 57.2441 66.9273 57.2449Z" fill="white"/>
</g>
</g>
<defs>
<clipPath id="clip0_94_32">
<rect width="100" height="100" fill="white"/>
</clipPath>
<clipPath id="clip1_94_32">
<rect width="100" height="100" fill="white"/>
</clipPath>
</defs>
</svg>
