<svg width="256" height="256" viewBox="0 0 256 256" fill="none" xmlns="http://www.w3.org/2000/svg">
<path d="M72.5951 254.307C82.1913 246.29 97.725 219.867 101.226 206.402C103.112 199.149 110.884 169.552 110.884 169.552C115.939 179.19 130.706 187.35 146.414 187.35C193.167 187.35 226.853 144.354 226.853 90.9333C226.85 39.7239 185.06 1.40674 131.285 1.40674C64.3927 1.40674 28.8631 46.3133 28.8631 95.2102C28.8631 117.946 40.9658 146.251 60.3295 155.263C63.2659 156.628 64.8367 156.027 65.5139 153.189C66.0282 151.034 68.6415 140.507 69.8189 135.61C70.1954 134.044 70.0099 132.698 68.7426 131.164C62.3386 123.397 57.2076 109.111 57.2076 95.789C57.2076 61.5998 83.0961 28.5176 127.202 28.5176C165.283 28.5176 191.95 54.468 191.95 91.5824C191.95 133.516 170.774 162.566 143.222 162.566C128.006 162.566 116.614 149.983 120.267 134.556C124.636 116.128 133.106 96.2442 133.106 82.9445C133.106 71.0385 126.716 61.108 113.492 61.108C97.9357 61.108 85.4425 77.2009 85.4425 98.7536C85.4425 112.483 90.079 121.767 90.079 121.767C90.079 121.767 74.7167 186.721 71.9011 198.82C68.7848 212.207 70.0071 231.068 71.3644 243.331L72.5951 254.307Z" fill="black"/>
</svg>
