<svg width="50" height="50" viewBox="0 0 50 50" fill="none" xmlns="http://www.w3.org/2000/svg">
<g clip-path="url(#clip0_119_136)">
<path d="M11.6387 16.0854H1.60113C1.15565 16.0854 0.794678 16.4466 0.794678 16.8919V49.1384C0.794678 49.5838 1.15565 49.9448 1.60113 49.9448H11.6387C12.0842 49.9448 12.4452 49.5838 12.4452 49.1384V16.8919C12.4452 16.4466 12.0842 16.0854 11.6387 16.0854Z" fill="white"/>
<path d="M6.62355 0.0551758C2.97129 0.0551758 9.53674e-07 3.02324 9.53674e-07 6.67147C9.53674e-07 10.3213 2.97129 13.2905 6.62355 13.2905C10.2729 13.2905 13.2418 10.3211 13.2418 6.67147C13.2419 3.02324 10.2729 0.0551758 6.62355 0.0551758Z" fill="white"/>
<path d="M37.17 15.2842C33.1385 15.2842 30.1584 17.0172 28.3508 18.9864V16.8921C28.3508 16.4468 27.9898 16.0856 27.5444 16.0856H17.9316C17.4861 16.0856 17.1252 16.4468 17.1252 16.8921V49.1385C17.1252 49.584 17.4861 49.945 17.9316 49.945H27.9473C28.3927 49.945 28.7537 49.584 28.7537 49.1385V33.184C28.7537 27.8077 30.214 25.7132 33.9618 25.7132C38.0434 25.7132 38.3677 29.071 38.3677 33.4606V49.1387C38.3677 49.5842 38.7287 49.9451 39.1742 49.9451H49.1936C49.639 49.9451 50 49.5842 50 49.1387V31.451C50 23.4566 48.4756 15.2842 37.17 15.2842Z" fill="white"/>
</g>
<defs>
<clipPath id="clip0_119_136">
<rect width="50" height="50" fill="white"/>
</clipPath>
</defs>
</svg>
