<svg width="200" height="40" viewBox="0 0 200 40" fill="none" xmlns="http://www.w3.org/2000/svg">
<path d="M116.04 35.6485C116.04 35.9833 116.238 36.1506 116.436 36.1506C116.634 36.1506 116.832 36.1506 116.832 35.9833L179.208 1.67364C180.396 1.00418 181.386 0.669457 182.772 0.669457H196.436C198.614 0.669457 200 1.84101 200 3.68201V25.7741C200 28.4519 199.208 29.9582 196.436 31.4644L179.802 39.8326C179.604 40 179.406 40 179.208 40C179.01 40 178.812 39.8326 178.812 39.3305V13.5565C178.812 13.2218 178.614 13.0544 178.416 13.0544C178.218 13.0544 178.02 13.0544 178.02 13.2218L132.475 38.3264C131.287 38.9958 130.099 39.1632 128.911 39.1632H98.8119C96.6337 39.1632 95.2475 37.9916 95.2475 36.1506V4.35147C95.2475 4.1841 95.0495 3.84937 94.8515 3.84937C94.6535 3.84937 94.4554 3.84937 94.4554 4.01674L64.3564 19.4142C63.9604 19.5816 63.9604 19.749 63.9604 19.749C63.9604 19.9163 63.9604 19.9163 64.1584 20.0837L85.5446 38.159C85.7426 38.3264 85.9406 38.6611 85.9406 38.8285C85.9406 38.9958 85.5446 39.1632 85.3465 39.1632H65.9406C64.3564 39.1632 63.1683 38.9958 62.3762 38.3264L49.3069 27.2803C49.1089 27.113 49.1089 27.113 48.9109 27.113C48.7129 27.113 48.7129 27.113 48.5149 27.2803L26.7327 38.3264C25.3465 38.9958 24.5545 39.1632 23.1683 39.1632H3.56436C1.38614 39.1632 0 37.9916 0 36.1506V14.3933C0 11.7155 0.792079 10.2092 3.56436 8.70293L20.198 0.167365C20.396 6.35949e-07 20.5941 0 20.5941 0C20.7921 0 20.9901 0.167365 20.9901 0.669457V29.6234C20.9901 29.9582 21.1881 30.1255 21.3861 30.1255C21.5842 30.1255 21.7822 30.1255 21.9802 29.9582L78.4158 1.17155C79.802 0.502093 80.5941 0.334729 82.1782 0.334729H112.673C114.851 0.334729 116.238 1.50628 116.238 3.34728V35.6485H116.04Z" fill="white"/>
</svg>
