<svg width="24" height="24" viewBox="0 0 24 24" fill="none" xmlns="http://www.w3.org/2000/svg">
<path d="M12 0C5.373 0 0 5.373 0 12C0 18.627 5.373 24 12 24C18.627 24 24 18.627 24 12C24 5.373 18.627 0 12 0ZM17.126 16.475C17.069 16.552 17.023 16.875 16.948 17.13C16.862 17.425 16.592 17.392 16.292 17.333C15.855 17.248 15.465 17.224 15.011 17.299C14.226 17.43 13.41 18.591 12.042 18.591C10.57 18.591 9.804 17.435 8.988 17.299C8.156 17.161 7.678 17.383 7.391 17.383C7.17 17.383 7.084 17.248 7.051 17.136C6.977 16.885 6.931 16.555 6.873 16.476C6.308 16.389 5.033 16.167 5 15.598C4.992 15.45 5.096 15.319 5.243 15.295C7.115 14.987 8.306 12.876 8.112 12.418C7.974 12.093 7.377 11.976 7.126 11.877C6.478 11.621 6.387 11.327 6.426 11.125C6.479 10.845 6.821 10.657 7.106 10.657C7.381 10.657 7.866 11.024 8.244 10.815C8.189 9.833 8.05 8.428 8.4 7.644C9.067 6.148 10.529 5.408 11.992 5.408C13.465 5.408 14.938 6.158 15.6 7.643C15.949 8.426 15.812 9.824 15.756 10.815C16.113 11.012 16.555 10.648 16.863 10.648C17.165 10.648 17.575 10.852 17.582 11.193C17.587 11.46 17.349 11.69 16.874 11.877C16.619 11.978 16.026 12.094 15.888 12.418C15.69 12.886 16.918 14.991 18.757 15.294C18.903 15.318 19.008 15.448 19 15.597C18.967 16.166 17.686 16.388 17.126 16.475Z" fill="white"/>
</svg>
